<?xml version="1.0" standalone="no"?>
<!DOCTYPE svg PUBLIC "-//W3C//DTD SVG 1.1//EN" "http://www.w3.org/Graphics/SVG/1.1/DTD/svg11.dtd" >
<!--
2013-9-30: Created.
-->
<svg>
<metadata>
Created by iconfont
</metadata>
<defs>

<font id="iconfont" horiz-adv-x="1024" >
  <font-face
    font-family="iconfont"
    font-weight="500"
    font-stretch="normal"
    units-per-em="1024"
    ascent="896"
    descent="-128"
  />
    <missing-glyph />
    
    <glyph glyph-name="weixin" unicode="&#59001;" d="M371.226529 692.547633c-187.547442 0-341.167762-127.83631-341.167762-290.156664 0-93.698461 51.116462-170.613985 136.491188-230.204701l-34.122797-102.654378 119.256692 59.831547c42.687363-8.474254 76.915524-17.144184 119.497523-17.144184 10.701945 0 21.32863 0.526819 31.849951 1.369729-6.652967 22.833826-10.521321 46.706237-10.521321 71.481766 0 148.969264 128.001881 269.926827 290.066352 269.926827 11.04814 0 21.990916-0.812806 32.858432-2.016963C685.91789 590.420073 538.980641 692.547633 371.226529 692.547633zM260.398936 462.207464c-25.558231 0-51.372345 17.129132-51.372345 42.702415 0 25.678646 25.814114 42.566947 51.372345 42.566947s42.597051-16.903353 42.597051-42.566947C302.980935 479.336597 285.957167 462.207464 260.398936 462.207464zM499.168203 462.207464c-25.573283 0-51.236877 17.129132-51.236877 42.702415 0 25.678646 25.663595 42.566947 51.236877 42.566947 25.693698 0 42.702415-16.903353 42.702415-42.566947C541.870618 479.336597 524.846849 462.207464 499.168203 462.207464zM993.971337 189.149829c0 136.310564-136.491188 247.484353-289.780365 247.484353-162.320354 0-290.171716-111.173788-290.171716-247.484353 0-136.611604 127.851362-247.559613 290.171716-247.559613 33.972277 0 68.21549 8.549514 102.353339 17.11408l93.593097-51.236877-25.663595 85.269362C942.945187 44.079023 993.971337 112.204201 993.971337 189.149829zM610.10116 231.776984c-16.993665 0-34.137849 16.873249-34.137849 34.107745 0 17.023769 17.144184 34.152901 34.137849 34.152901 25.814114 0 42.702415-17.129132 42.702415-34.152901C652.803575 248.650233 635.915274 231.776984 610.10116 231.776984zM797.769017 231.776984c-16.873249 0-33.897018 16.873249-33.897018 34.107745 0 17.023769 17.023769 34.152901 33.897018 34.152901 25.558231 0 42.702415-17.129132 42.702415-34.152901C840.471432 248.650233 823.327248 231.776984 797.769017 231.776984z"  horiz-adv-x="1024" />

    
    <glyph glyph-name="gouwuche" unicode="&#58947;" d="M817.344-23.68c-44.992 0-81.6 36.48-81.6 81.664 0 44.928 36.608 81.472 81.6 81.472s81.536-36.544 81.536-81.472c0.064-45.184-36.48-81.664-81.536-81.664zM817.344 101.888c-24.192 0-43.968-19.584-43.968-43.904 0-24.384 19.776-44.032 43.968-44.032 24.256 0 43.904 19.712 43.904 44.032 0 24.32-19.648 43.904-43.904 43.904zM449.28-23.68c-44.992 0-81.664 36.48-81.664 81.664 0 44.928 36.672 81.472 81.664 81.472 44.928 0 81.536-36.544 81.536-81.472 0-45.184-36.608-81.664-81.536-81.664zM449.28 101.888c-24.32 0-43.968-19.584-43.968-43.904 0-24.384 19.648-44.032 43.968-44.032 24.256 0 43.968 19.712 43.968 44.032-0.064 24.32-19.776 43.904-43.968 43.904zM892.992 163.456h-582.208c-6.336 0-11.968 3.136-15.552 8.128-3.584 5.12-4.288 11.648-2.048 17.408l54.080 143.36-143.232 421.696h-121.152c-10.496 0-18.88 8.448-18.88 18.816s8.384 18.816 18.88 18.816h134.656c8.064 0 15.232-5.12 17.792-12.8l149.696-440.832c1.408-4.096 1.408-8.576-0.192-12.672l-46.976-124.352h555.136c10.304 0 18.752-8.32 18.752-18.752 0-10.304-8.448-18.816-18.752-18.816zM836.352 313.344h-469.12c-10.368 0-18.752 8.32-18.752 18.688 0 10.496 8.384 18.944 18.752 18.944h455.296l92.864 290.048h-655.296c-10.56 0-18.88 8.384-18.88 18.816 0 10.368 8.32 18.816 18.88 18.816h681.024c6.080 0 11.776-2.816 15.168-7.68 3.648-4.928 4.544-11.136 2.88-16.896l-104.768-327.68c-2.56-7.936-9.856-13.056-18.048-13.056z"  horiz-adv-x="1034" />

    
    <glyph glyph-name="gouwudai1" unicode="&#58942;" d="M857.93-62.876h-694.873v694.867h694.873v-694.867zM207.357-18.576h606.273v606.268l-606.273 0v-606.268zM646.889 467.022h-44.3v231.263c0 49.71-40.444 90.151-90.151 90.151s-90.152-40.441-90.152-90.151v-231.263h-44.3l-0 231.263c0 74.136 60.312 134.451 134.451 134.451s134.451-60.315 134.451-134.451v-231.263zM398.2 382.973c-30.365 0-55.066 24.703-55.066 55.064 0 30.365 24.703 55.066 55.066 55.066 30.365 0 55.066-24.703 55.066-55.066 0.001-30.361-24.702-55.064-55.066-55.064zM398.2 448.803c-5.937 0-10.767-4.829-10.767-10.767 0-5.935 4.829-10.764 10.767-10.764 5.937 0 10.766 4.829 10.766 10.764 0.001 5.938-4.828 10.767-10.766 10.767zM622.787 382.973c-30.365 0-55.066 24.703-55.066 55.064 0 30.365 24.703 55.066 55.066 55.066 30.358 0 55.061-24.703 55.061-55.066-0-30.361-24.702-55.064-55.061-55.064zM622.787 448.803c-5.937 0-10.766-4.829-10.766-10.767 0-5.935 4.829-10.764 10.766-10.764 5.932 0 10.761 4.829 10.761 10.764 0.001 5.938-4.829 10.767-10.761 10.767z"  horiz-adv-x="1024" />

    
    <glyph glyph-name="xingxing1" unicode="&#58901;" d="M348.105 128.908c3.291 26.64 6.297 51.583 9.469 76.506 4.73 37.181 9.751 74.326 14.098 111.551 0.426 3.64-2.068 8.604-4.775 11.476-40.362 42.829-80.99 85.409-121.545 128.057-2.407 2.533-4.729 5.143-8.216 8.944 21.679 4.187 42.050 8.19 62.448 12.050 41.887 7.927 83.821 15.615 125.629 23.932 3.942 0.785 8.411 4.62 10.478 8.264 28.853 50.847 57.327 101.911 85.902 152.918 1.718 3.065 3.514 6.084 6.152 10.638 2.33-3.884 4.121-6.703 5.752-9.614 28.567-51.011 57.2-101.985 85.558-153.114 3.277-5.909 7.165-8.674 13.964-9.928 61.284-11.308 122.48-23.089 185.383-35.050-2.696-3.044-4.602-5.336-6.649-7.491-40.776-42.885-81.49-85.83-122.462-128.526-4.724-4.919-6.065-9.358-5.158-16.227 7.813-59.264 15.105-118.594 22.547-177.904 0.193-1.543 0.311-3.096 0.628-6.318-3.963 1.649-6.81 2.718-9.563 3.991-53.635 24.79-107.305 49.502-160.821 74.542-6.407 3-11.552 3.15-18.052 0.107-53.228-24.903-106.627-49.435-159.981-74.064-3.087-1.428-6.229-2.745-10.786-4.741z"  horiz-adv-x="1024" />

    
    <glyph glyph-name="jiantou" unicode="&#59154;" d="M811.16093 554.552879 512.128011 213.36178 213.180432 554.552879 811.16093 554.552879z"  horiz-adv-x="1025" />

    
    <glyph glyph-name="weizhi" unicode="&#58896;" d="M511.318478 841.026968c-187.44002 0-339.387687-151.952784-339.387687-339.38871 0-141.897777 282.960537-565.934376 339.387687-565.644781 55.540967-0.289596 339.38871 425.650353 339.38871 565.644781C850.707189 689.074184 698.755428 841.026968 511.318478 841.026968zM511.318478 20.839887c-47.022966-0.240477-282.82239 362.550223-282.82239 480.798371 0 156.198481 126.624932 282.823414 282.82239 282.823414s282.821367-126.624932 282.821367-282.823414C794.139845 384.971118 557.603641 20.59941 511.318478 20.839887zM511.318478 643.049964c-78.099752 0-141.411707-63.311954-141.411707-141.411707 0-78.097706 63.311954-141.411707 141.411707-141.411707 78.098729 0 141.410684 63.314001 141.410684 141.411707C652.729162 579.739033 589.417207 643.049964 511.318478 643.049964zM511.318478 416.794917c-46.859237 0-84.847433 37.984103-84.847433 84.84334 0 46.862307 37.988196 84.84641 84.847433 84.84641s84.84641-37.984103 84.84641-84.84641C596.164888 454.777997 558.177716 416.794917 511.318478 416.794917z"  horiz-adv-x="1024" />

    
    <glyph glyph-name="jia" unicode="&#58918;" d="M980.700543 427.545107H557.401933V850.843717a43.350032 43.350032 0 0 1-86.700063 0v-423.29861H47.396035a43.350032 43.350032 0 0 1 0-86.700064h423.305835v-423.31306a43.350032 43.350032 0 0 1 86.700063 0v423.31306h423.29861a43.350032 43.350032 0 0 1 0 86.700064z"  horiz-adv-x="1024" />

    
    <glyph glyph-name="jiajian-" unicode="&#58959;" d="M123.84 434.4h776.32a41.92 41.92 0 0 0 0-83.84H123.84a41.92 41.92 0 1 0 0 83.84z"  horiz-adv-x="1024" />

    
    <glyph glyph-name="weibo" unicode="&#58912;" d="M1257.425339 452.152709h-0.340766c-5.707825-39.188053-25.131468-42.340135-48.218343-42.340135-27.60202 0-50.007363 17.464241-50.007362 45.151452 0 24.02398 9.967396 48.388726 9.967396 48.388726 2.896508 10.137779 26.324148 72.923854-15.419647 166.804797-76.501894 128.639042-230.61317 130.513253-248.758943 123.186792a236.832144 236.832144 0 0 0-45.407026-10.819311 50.262937 50.262937 0 0 0-50.262937 50.262937c0 23.172066 15.504838 42.680901 36.63231 48.6443 0 0 0.425957 0.851914 1.19268 1.022297 1.533446 0.255574 3.066891 1.78902 4.77072 1.959403 21.297855 4.17438 97.88494 19.082878 172.257048 1.703828C1156.899465 855.108119 1339.549867 726.213503 1257.425339 452.152709zM893.657981 637.103279a34.417333 34.417333 0 0 0-34.417333 34.502524c0 19.253261 15.334455 34.758099 34.417333 34.758099 0 0 215.108332 39.784392 189.380524-191.680692a34.332142 34.332142 0 0 0-34.24695-32.628313 34.502525 34.502525 0 0 0-34.672908 34.502524s34.076567 154.707616-120.460666 120.545858z m17.464241-65.42701c58.27093-58.27093 9.62663-138.606438 9.626631-138.606438s-24.109171-26.750105 25.557425-36.461927c49.922171-9.967396 206.674382-82.635676 120.375475-266.478757-86.213716-183.417124-370.753054-272.782922-581.601815-256.170596C284.794912-110.195845 27.261254-43.661347 0.59634 199.134196c0 0-14.056584 109.982121 92.347498 252.336982 0 0 153.174171 214.086035 331.565001 275.168282 178.476022 60.741481 199.34792-42.084561 199.34792-102.911234-9.541439-51.626-27.261254-81.954145 39.699201-61.167439 0 0 175.494322 81.528188 247.651454 9.200674zM500.755159 439.459188c-209.230124-9.62663-378.420282-121.823729-378.420282-261.878421 0-139.713927 169.190157-244.840137 378.420282-235.128316 209.485698 9.62663 378.93143 140.821415 378.93143 280.620533 0 139.713927-169.530923 226.098025-378.93143 216.386204z m-171.490326-408.578044c-58.526505 31.776399-56.396719 94.3069-56.396719 94.3069S248.58856 322.661753 459.181746 347.367264c210.76357 24.535129 248.332985-177.027768 184.269039-259.919018-64.063947-82.806059-190.828778-123.271983-314.100761-56.481911z m73.179429 161.52293c-39.273244-4.089188-67.471604-38.336138-67.471604-71.134835 0-32.969079 31.691208-55.629996 70.964452-51.02966 39.188053 4.429954 71.049643 34.758099 71.049643 67.471604 0 32.969079-29.391039 58.952462-74.542491 54.692891z m138.606438 23.853597c-7.070888 11.586033-23.257257 14.99369-38.847287 3.322465a31.009676 31.009676 0 0 1-8.859908-40.125158c6.985696-11.926799 23.342449-13.375053 36.63231-3.407657 13.034287 10.22297 18.145772 28.113168 11.074885 40.125158z"  horiz-adv-x="1280" />

    
    <glyph glyph-name="suo" unicode="&#58911;" d="M512 290.837997a93.635381 93.635381 0 0 1-69.359542-156.058969v-6.935954a69.359542 69.359542 0 1 1 138.719084 0V136.513017a93.635381 93.635381 0 0 1-69.359542 156.058969z m22.541851-133.517118v-29.477805a22.541851 22.541851 0 0 0-46.817691 0V157.320879a46.817691 46.817691 0 0 0 24.27584 86.699428 46.817691 46.817691 0 0 0 22.541851-86.699428zM791.172156 476.374772v138.719084a279.172156 279.172156 0 0 1-558.344312 0v-138.719084A93.635381 93.635381 0 0 1 139.192463 384.473379v-419.625228C139.192463-87.171506 180.808188-127.053242 232.827844-127.053242h558.344312C843.191812-127.053242 883.073549-87.171506 883.073549-35.151849V384.473379A93.635381 93.635381 0 0 1 791.172156 476.374772zM277.911546 615.093856a232.354465 232.354465 0 1 0 464.708931 0v-138.719084H277.911546v138.719084z m558.344312-650.245705a46.817691 46.817691 0 0 0-46.817691-46.817691H232.827844A46.817691 46.817691 0 0 0 186.010153-35.151849V384.473379C186.010153 410.483207 206.818016 431.29107 232.827844 431.29107h558.344312C815.447996 431.29107 837.989847 410.483207 837.989847 384.473379v-419.625228z"  horiz-adv-x="1024" />

    
    <glyph glyph-name="off" unicode="&#58625;" d="M123.84 425.92h776.32c23.152-0 41.92-18.768 41.92-41.92 0-23.152-18.768-41.92-41.92-41.92h-776.32c-0 0-0 0-0 0-23.152 0-41.92 18.768-41.92 41.92 0 23.152 18.768 41.92 41.92 41.92 0 0 0 0 0 0zM470.080-4.16v776.32c0 23.152 18.768 41.92 41.92 41.92 23.152 0 41.92-18.768 41.92-41.92v-776.32c0-0 0-0 0-0 0-23.152-18.768-41.92-41.92-41.92-23.152 0-41.92 18.768-41.92 41.92 0 0 0 0 0 0z"  horiz-adv-x="1024" />

    
    <glyph glyph-name="shoucang1" unicode="&#58626;" d="M895.846 378.315c88.278 91.944 88.222 240.9 0 332.835-45.108 46.959-104.532 69.93-163.643 68.915-82.678-1.462-219.038-115.387-219.038-115.387s-140.186 115.557-224.911 115.411c-57.72-0.103-115.407-23.085-159.449-68.939-88.227-91.935-88.278-240.891 0-332.835l383.521-399.298 383.521 399.298z"  horiz-adv-x="1024" />

    
    <glyph glyph-name="gouwudai" unicode="&#59141;" d="M353.627309 43.669665h-2.105996c-11.631977 0-21.063959-9.431982-21.063958-21.063959s9.431982-21.063959 21.063958-21.063959h2.105996c11.631977 0 21.063959 9.431982 21.063959 21.063959s-9.431982 21.063959-21.063959 21.063959zM917.336208 687.414407l-0.046-0.057999a20.979959 20.979959 0 0 1-1.531997 7.111986 21.067959 21.067959 0 0 1-19.461962 13.003974h-156.131695V826.268136C740.164554 864.716061 708.880615 896 670.428691 896H451.795118c-38.449925 0-69.731864-31.283939-69.731864-69.731864v-28.481944h-28.481945c-38.449925 0-69.731864-31.283939-69.731863-69.731864v-20.58196h-57.937887c-5.585989 0-10.943979-2.219996-14.893971-6.169988l-98.203808-98.203808 0.008-0.02a20.995959 20.995959 0 0 1-6.153988-13.871973c-5.877989-122.86176-11.857977-237.093537-17.641966-347.561321-5.783989-110.461784-11.763977-224.685561-17.641965-347.573321a21.077959 21.077959 0 0 1 5.791988-15.54197 21.079959 21.079959 0 0 1 15.24597-6.529987h740.950553c5.601989 0 10.949979 2.243996 14.895971 6.197988l-0.002-0.03 98.203808 98.203808a21.063959 21.063959 0 0 1 6.139988 15.995969c-0.23 4.495991-23.633954 452.139117-35.273931 695.046642z m-71.893859-22.073956l-56.073891-56.073891h-147.417712V665.340451h203.491603zM424.193171 826.268136c0 15.22197 12.381976 27.603946 27.603947 27.603946h218.633573c15.22197 0 27.603946-12.383976 27.603946-27.603946v-118.795768h-56.081891v20.57996c0 38.451925-31.283939 69.731864-69.731864 69.731864h-148.023711V826.268136z m217.757575-373.943269c0-11.615977-9.449982-21.063959-21.063959-21.063959s-21.063959 9.449982-21.063959 21.063959 9.449982 21.063959 21.063959 21.063958 21.063959-9.449982 21.063959-21.063958zM424.193171 755.656274h148.023711c15.22197 0 27.603946-12.383976 27.603946-27.603946v-20.58196h-175.627657V755.656274zM325.979363 728.052328c0 15.22197 12.381976 27.603946 27.603946 27.603946h28.481945v-48.185906H325.979363V728.052328z m0-62.711877h273.841465v-56.073891H325.979363V665.340451z m-21.063959-191.951626c11.615977 0 21.063959-9.449982 21.063959-21.063958s-9.449982-21.063959-21.063959-21.063959-21.063959 9.449982-21.063958 21.063959 9.447982 21.063959 21.063958 21.063958zM234.639542 665.340451h49.211904v-56.073891H178.561651l56.077891 56.073891zM114.525776-85.866082c5.531989 114.443776 11.137978 221.539567 16.571968 325.311364 5.469989 104.487796 11.115978 212.327585 16.687967 327.69336h136.065735v-55.241892c-24.517952-8.695983-42.129918-32.111937-42.129918-59.571883 0-34.845932 28.347945-63.193877 63.193876-63.193877s63.193877 28.347945 63.193877 63.193877c0 27.459946-17.611966 50.875901-42.129918 59.571883v55.241892h273.841465v-55.241892c-24.517952-8.695983-42.129918-32.111937-42.129917-59.571883 0-34.845932 28.347945-63.193877 63.193876-63.193877 34.845932 0 63.193877 28.347945 63.193877 63.193877 0 27.459946-17.611966 50.875901-42.129918 59.571883v55.241892h136.065734c5.571989-115.367775 11.217978-223.207564 16.687968-327.69336a123316.899147 123316.899147 0 0 0 10.14198-195.773617H450.261121c-11.631977 0-21.063959-9.431982-21.063959-21.063959s9.431982-21.063959 21.063959-21.063959h356.709303c1.435997-28.693944 2.873994-57.799887 4.303991-87.407829H114.525776z m737.59056 27.465946v-0.006c-5.13199 105.013795-10.31198 203.959602-15.34397 300.051414-5.639989 107.66579-11.461978 218.929572-17.195967 338.253339l57.973887 57.973887c11.119978-228.005555 29.291943-576.896873 32.499937-638.336753l-57.933887-57.935887z"  horiz-adv-x="1024" />

    
    <glyph glyph-name="gouwudai2" unicode="&#58975;" d="M753.1 566.3h-58.4v24.9c0 62.8-51.2 114-114 114-26 0-49.6-9-68.8-23.7-19.3 14.9-43.1 24.2-69.3 24.2-62.8 0-114-51.1-114-114v-25.3h-59c-5.7 0-10.3-4.6-10.3-10.3v-416.3c0-5.7 4.6-10.3 10.3-10.3H753.2c5.7 0 10.3 4.6 10.3 10.3V556c-0.1 5.7-4.7 10.3-10.4 10.3zM674 591.2v-24.9H556.5v25.3c0 29.2-11.3 55.5-29.4 75.7 15.2 10.7 33.6 17.1 53.6 17.1 51.4 0.1 93.3-41.8 93.3-93.2z m-186.7-24.9v24.9c0 24.1 9.4 45.8 24.4 62.4 14.8-16.5 24.1-38.1 24.1-62v-25.3h-48.5z m-138.2 25.3c0 51.5 41.9 93.3 93.4 93.3 20.2 0 38.7-6.6 54-17.5-18.3-20.3-29.9-46.8-29.9-76.2v-24.9H349.1v25.3z m-10.3-397.1l44.4-44.4h-88.8l44.4 44.4z m10.3 18.8V545.7h48.7v-381l-48.7 48.6z m-20.6 332.4v-332.3l-48.6-48.7v381h48.6zM742.7 150H418.5V545.6h48.1v-59c0-5.7 4.6-10.3 10.3-10.3 5.7 0 10.3 4.6 10.3 10.3v59H674v-59c0-5.7 4.6-10.3 10.3-10.3 5.7 0 10.3 4.6 10.3 10.3v59h48.1V150z"  horiz-adv-x="1024" />

    
    <glyph glyph-name="tubiao-" unicode="&#58964;" d="M485.376 657.067c-132.21-0-239.388-107.178-239.388-239.388 0-132.211 107.178-239.388 239.388-239.388 132.211 0 239.388 107.178 239.388 239.388 0 0.16-0 0.32-0 0.48-0.388 131.938-107.39 238.78-239.376 238.909zM485.376 212.423c-113.108 0-204.8 91.692-204.8 204.8s91.692 204.8 204.8 204.8c113.108 0 204.8-91.692 204.8-204.8-0.517-112.716-92.010-203.89-204.798-203.89-0.001 0-0.001 0-0.002 0zM403.456 551.481c-45.32-27.804-75.093-77.080-75.093-133.309 0-0.013 0-0.027 0-0.040 0.002-9.422 7.642-17.060 17.067-17.060 9.424 0 17.064 7.639 17.067 17.062-0 0.117-0.001 0.255-0.001 0.393 0 43.979 23.276 82.521 58.181 103.98 4.178 3.451 6.473 8.081 6.473 13.247 0 9.426-7.641 17.067-17.067 17.067-2.393 0-4.671-0.492-6.738-1.381zM773.689 140.060l-78.279 78.279c-3.039 2.838-7.134 4.58-11.635 4.58-9.426 0-17.067-7.641-17.067-17.067 0-4.501 1.742-8.595 4.59-11.645l78.27-78.269c3.124-3.346 7.562-5.432 12.486-5.432 9.426 0 17.067 7.641 17.067 17.067 0 4.925-2.086 9.362-5.422 12.477z"  horiz-adv-x="1024" />

    
    <glyph glyph-name="weizhi1" unicode="&#58983;" d="M512 591.5c-62.4 0-113.3-50.8-113.3-113.3 0-22.9 6.8-45 19.7-63.8 21.2-30.9 56.1-49.4 93.6-49.4 37.4 0 72.4 18.5 93.6 49.4 12.9 18.9 19.7 40.9 19.7 63.8 0 62.5-50.8 113.3-113.3 113.3z m56.3-151.6c-12.8-18.7-33.8-29.8-56.3-29.8s-43.6 11.1-56.3 29.8c-7.7 11.3-11.8 24.6-11.8 38.4 0 37.6 30.6 68.2 68.2 68.2s68.2-30.6 68.2-68.2c-0.1-13.8-4.2-27.1-12-38.4zM512 744.8c-147 0-266.6-119.6-266.6-266.6 0-53.9 16-105.9 46.4-150.3l201.6-295c4.2-6.1 11.2-9.8 18.6-9.8 7.4 0 14.4 3.7 18.6 9.8l201.6 295c30.3 44.4 46.3 96.3 46.3 150.3 0.1 147-119.5 266.6-266.5 266.6z m183-391.4L512 85.7 329 353.4c-25.2 36.8-38.5 80-38.5 124.8 0 122.1 99.4 221.5 221.5 221.5s221.5-99.4 221.5-221.5c0-44.8-13.3-87.9-38.5-124.8z"  horiz-adv-x="1024" />

    
    <glyph glyph-name="weizhi2" unicode="&#58889;" d="M512 712.8665515305474c-149.20073923375463 0-270.27987360768014-121.07913437392563-270.27987360768014-270.27987360768014 0-213.25550736766306 247.23578035924587-387.4532294534147 270.27987360768014-387.4532294534147 25.778138014487922 0 270.27987360768014 170.68252147827297 270.27987360768014 387.4532294534147 0.3905779207125306 149.20073923375463-120.68855645321308 270.27987360768014-270.27987360768014 270.27987360768014z m0-613.5978054888548c-19.919470561668277 0-233.9561330918223 151.15362883731726-233.9561330918223 335.5063748247921 0 129.28126935102048 104.67486441973598 233.9561330918223 233.9561330918223 233.9561330918223s234.34671101253477-104.67486441973598 234.34671101253477-233.9561330918223c0-187.8679465949535-212.0837736055255-335.5063748247921-234.34671101253477-335.5063748247921zM512 590.2251061527058c-85.14597177878022 0-154.27825152408332-69.1322797453031-154.27825152408332-154.27825152408332s69.1322797453031-154.27825152408332 154.27825152408332-154.27825220301742 154.27825152408332 69.1322797453031 154.27825152408332 154.27825220301742S597.1459717787803 590.2251061527058 512 590.2251061527058z m0-269.10814052447677c-63.27361229248344 0-114.43931040074676 51.165698787197464-114.43931040074676 114.43931107968093S448.72638770751655 550.3861650293693 512 550.3861650293693s114.43931040074676-51.165698787197464 114.43931040074676-114.43931040074676-51.165698787197464-114.8298883214593-114.43931040074676-114.82988900039348z"  horiz-adv-x="1024" />

    
    <glyph glyph-name="jiajianchengchu-" unicode="&#58908;" d="M192 416h640v-64H192z"  horiz-adv-x="1024" />

    
    <glyph glyph-name="jiajianchengchu-1" unicode="&#58909;" d="M192 416h640v-64H192zM544 704v-640h-64V704z"  horiz-adv-x="1024" />

    
    <glyph glyph-name="shoucang11" unicode="&#58627;" d="M707.584 802.816c-77.312 0-148.992-38.912-196.608-102.912-47.104 64-119.296 102.912-196.608 102.912-139.264 0-252.416-123.904-252.416-275.968 0-90.624 40.448-154.624 73.216-205.824 94.72-148.992 333.312-333.824 343.552-341.504 9.728-7.68 20.992-11.264 32.256-11.264s22.528 3.584 32.256 11.264c10.24 7.68 248.32 193.024 343.552 341.504 32.768 51.2 73.216 115.2 73.216 205.824 0 152.064-113.152 275.968-252.416 275.968z"  horiz-adv-x="1024" />

    
    <glyph glyph-name="cebianlan-fanhuidingbu" unicode="&#58972;" d="M512 468.514133l-277.572267-277.572266a51.2 51.2 0 1 0-72.3968 72.3968l313.7536 313.7536c10.001067 10.001067 23.108267 14.984533 36.215467 14.984533s26.2144-4.983467 36.215467-14.984533l313.7536-313.7536a51.2 51.2 0 1 0-72.3968-72.3968L512 468.514133z"  horiz-adv-x="1024" />

    
    <glyph glyph-name="zixun" unicode="&#59110;" d="M885.812 334.661c0.211 8.469 0.235 17.087 0.059 25.721 2.304 116.83-32.464 215.312-100.563 284.823-32.48 33.149-71.985 58.591-117.25 75.924-7.025 63.108-75.562 112.793-158.812 112.793-83.245 0-151.779-49.684-158.806-112.793-45.262-17.332-84.762-42.775-117.239-75.924C165.083 575.692 130.3 477.406 132.62 360.93c-0.204-11.009-0.137-21.342 0.206-31.44-17.651-17.767-31.478-44.598-21.374-82.245 7.51-27.99 28.21-48.95 53.608-58.127a85.214 85.214 0 0 1 44.286-12.696C241.73 34.832 359.288-61.29 512.798-61.29c153.227 0 270.813 96.363 303.01 238.032 0.99-0.212 2.024-0.338 3.077-0.338 20.224 0 38.827 7.063 53.5 18.824 19.176 10.881 34.178 29.095 40.328 52.015 11.14 41.499-6.804 69.863-26.9 87.418zM375.298 503.572c2.44-4.079 60.945-100.543 171.167-142.359 30.41-11.539 61.564-18.134 91.701-24.51C698.601 323.898 755.7 311.806 794.6 261.3c0.405-0.523 0.855-1.01 1.321-1.469l-0.063-2.551c0-18.828-1.422-37.022-4.16-54.506-50.009-79.9-132.982-132.261-235.772-143.537-7.66 10.11-23.265 17.08-41.39 17.08-25.704 0-46.566-13.912-46.566-31.035 0-17.162 20.862-31.044 46.565-31.044 23.042 0 42.026 11.21 45.719 25.877 33.149 3.81 64.76 11.728 94.394 23.698 42.327 17.093 79.632 41.997 110.856 74.017 5 5.12 9.8 10.42 14.44 15.858-37.217-113.351-136.709-186.219-266.6-186.231a33.056 33.056 0 0 1-1.102 0.012c-166.661 0-283.062 119.175-283.062 290.081l-0.313 16.265c-0.206 6.97 0.873 26.545 2.036 45.319 90.855 32.143 128.581 124.493 130.232 128.645l14.163 55.792z m59.926-258.97c0-29.76-24.126-53.887-53.882-53.887s-53.882 24.127-53.882 53.886c0 29.757 24.126 53.88 53.882 53.88 29.757 0 53.882-24.126 53.882-53.88z m250.91 0c0-29.286-23.738-53.029-53.022-53.029-29.279 0-53.014 23.745-53.014 53.028s23.737 53.02 53.014 53.02c29.285-0.002 53.022-23.74 53.022-53.02z m0 0"  horiz-adv-x="1024" />

    
    <glyph glyph-name="suo1" unicode="&#58940;" d="M782.336 490.496c-16.896 0-15.872-2.048-15.872 16.384 0 34.304 0.512 30.208 0 64.512-1.536 68.608-27.136 127.488-75.776 175.104-80.384 78.848-197.12 95.744-294.912 41.472-83.968-46.592-128.512-120.832-132.096-219.136-1.024-31.744 0-26.112 0-57.856 0-23.04 2.56-19.456-19.456-19.968-34.816-0.512-59.392-25.088-59.392-60.416 0-139.776 0.512-279.552-0.512-419.84 0-36.352 30.208-62.464 60.928-61.952 88.576 1.024 177.664 0.512 266.24 0.512h267.776c36.864 0 60.416 24.064 60.416 61.44V425.984c0 5.632 0 11.776-1.024 17.408-5.12 27.648-28.16 47.104-56.32 47.104z m-469.504 71.68c0.512 86.528 51.2 162.304 129.024 193.024 122.368 48.128 259.072-34.304 274.432-166.912 5.12-43.008 1.536-48.128 2.048-91.648 0-7.168-5.12-6.144-9.216-6.144H325.632c-12.8 0-12.8 0-12.8 12.8v58.88z m474.112-539.648c0-10.24-8.192-18.944-18.432-18.944H255.488c-10.24 0-18.432 8.704-18.432 18.944v391.68c0 10.24 8.192 18.944 18.432 18.944h513.024c10.24 0 18.432-8.704 18.432-18.944v-391.68z m-263.168 348.16c-33.792 3.072-65.024-15.872-76.8-46.592-12.288-31.744-2.56-68.608 23.552-87.552 9.216-6.656 12.8-14.848 12.8-25.088v-55.808c1.024-17.92-2.048-38.912 1.536-59.904 2.56-14.336 14.848-24.576 29.696-25.088 14.336-0.512 25.6 8.704 29.184 23.552 1.024 4.608 1.536 9.216 1.536 13.312v98.304c0 12.288 3.584 22.016 14.336 29.696 24.576 17.92 33.792 44.032 28.16 74.752-5.632 32.256-33.28 57.856-64 60.416z"  horiz-adv-x="1024" />

    
    <glyph glyph-name="shoucang-copy" unicode="&#58631;" d="M707.584 802.816c-77.312 0-148.992-38.912-196.608-102.912-47.104 64-119.296 102.912-196.608 102.912-139.264 0-252.416-123.904-252.416-275.968 0-90.624 40.448-154.624 73.216-205.824 94.72-148.992 333.312-333.824 343.552-341.504 9.728-7.68 20.992-11.264 32.256-11.264s22.528 3.584 32.256 11.264c10.24 7.68 248.32 193.024 343.552 341.504 32.768 51.2 73.216 115.2 73.216 205.824 0 152.064-113.152 275.968-252.416 275.968z"  horiz-adv-x="1024" />

    
    <glyph glyph-name="xingxing" unicode="&#58906;" d="M817.52064 460.4928a34.05824 34.05824 0 0 1-27.57632 23.21408L619.008 508.55936 542.6176 663.4496c-11.4688 23.3472-49.7664 23.3472-61.2352 0l-76.3904-154.89024-170.93632-24.85248c-12.9024-1.8432-23.552-10.8544-27.57632-23.20384a34.06848 34.06848 0 0 1 8.6016-34.95936l123.6992-120.55552-29.15328-170.25024a34.01728 34.01728 0 0 1 13.5168-33.3824c10.57792-7.71072 24.576-8.66304 35.97312-2.59072l152.85248 80.34304 152.91392-80.34304a34.43712 34.43712 0 0 1 35.97312 2.59072 34.28352 34.28352 0 0 1 13.5168 33.3824l-29.15328 170.25024 123.6992 120.55552a34.06848 34.06848 0 0 1 8.6016 34.95936"  horiz-adv-x="1024" />

    
    <glyph glyph-name="weibiaoti-" unicode="&#58635;" d="M778.24 492.544h-188.416l88.064 53.248c8.192 4.096 14.336 12.288 16.384 22.528 2.048 8.192 0 18.432-6.144 26.624l-24.576 32.768c-6.144 8.192-16.384 12.288-26.624 12.288-8.192 0-16.384-4.096-22.528-10.24l-83.968-81.92c-4.096-4.096-6.144-6.144-8.192-12.288-4.096 0-8.192 2.048-12.288 2.048-4.096 0-6.144 0-10.24-2.048-2.048 4.096-4.096 8.192-8.192 10.24l-83.968 81.92c-6.144 6.144-14.336 10.24-22.528 10.24-10.24 0-20.48-4.096-26.624-12.288l-24.576-32.768c-6.144-8.192-8.192-16.384-6.144-26.624 2.048-8.192 8.192-16.384 16.384-22.528l88.064-53.248h-184.32v-157.696h69.632v-208.896h395.264V334.84799999999996H778.24v157.696zM538.624 160.76800000000003h-51.2V457.728h51.2v-296.96z m10.24 362.496s0 2.048 2.048 2.048l83.968 81.92h2.048s2.048 0 2.048-2.048l24.576-32.768v-2.048s0-2.048-2.048-2.048l-92.16-55.296c-4.096-2.048-12.288-2.048-14.336 2.048-2.048 4.096-4.096 6.144-6.144 8.192z m-14.336-30.72h-47.104c4.096 4.096 6.144 14.336 22.528 14.336 8.192 0 18.432-6.144 24.576-14.336z m-178.176 79.872v2.048l24.576 32.768 2.048 2.048h2.048l83.968-81.92c2.048 0 2.048-2.048 2.048-2.048l-6.144-6.144c-4.096-2.048-10.24-2.048-14.336 0l-94.208 53.248c0-2.048 0 0 0 0z m-75.776-202.752v88.064h172.032v-88.064h-172.032zM348.16 160.76800000000003v174.08h102.4v-174.08h-102.4z m327.68 0h-102.4v174.08h102.4v-174.08z m67.584 208.896h-172.032v88.064h172.032v-88.064zM512-107.51999999999998C241.664-107.51999999999998 22.528 111.61599999999999 22.528 381.952S241.664 871.424 512 871.424s489.472-219.136 489.472-489.472S782.336-107.51999999999998 512-107.51999999999998z m0 958.464C253.952 850.944 43.008 640 43.008 381.952 43.008 123.904 253.952-87.03999999999996 512-87.03999999999996s468.992 210.944 468.992 468.992C980.992 640 770.048 850.944 512 850.944z"  horiz-adv-x="1024" />

    
    <glyph glyph-name="shoucang" unicode="&#58628;" d="M707.584 802.816c-77.312 0-148.992-38.912-196.608-102.912-47.104 64-119.296 102.912-196.608 102.912-139.264 0-252.416-123.904-252.416-275.968 0-90.624 40.448-154.624 73.216-205.824 94.72-148.992 333.312-333.824 343.552-341.504 9.728-7.68 20.992-11.264 32.256-11.264s22.528 3.584 32.256 11.264c10.24 7.68 248.32 193.024 343.552 341.504 32.768 51.2 73.216 115.2 73.216 205.824 0 152.064-113.152 275.968-252.416 275.968z m114.176-480.256c-87.552-122.88-272.896-263.168-282.112-269.824-8.704-6.656-18.944-10.24-28.672-10.24-10.24 0-19.968 3.072-28.672 10.24-9.216 6.656-190.976 148.48-282.112 274.944-29.184 46.08-75.776 103.424-75.776 184.32 0 136.192 75.776 231.936 200.192 231.936 69.12 0 144.384-66.048 186.368-123.392 42.496 57.344 117.248 123.392 186.368 123.392 124.928 0 205.824-95.744 205.824-231.936 0-80.896-51.712-143.872-81.408-189.44z"  horiz-adv-x="1024" />

    
    <glyph glyph-name="shoucang2" unicode="&#58907;" d="M707.584 802.816c-77.312 0-148.992-38.912-196.608-102.912-47.104 64-119.296 102.912-196.608 102.912-139.264 0-252.416-123.904-252.416-275.968 0-90.624 40.448-154.624 73.216-205.824C229.888 172.055273 468.48-12.8 478.72-20.48c9.728-7.68 20.992-11.240727 32.256-11.240727s22.528 3.560727 32.256 11.240727c10.24 7.68 248.32 193.024 343.552 341.504 32.768 51.2 73.216 115.2 73.216 205.824 0 152.064-113.128727 275.968-252.416 275.968z m114.199273-480.279273c-87.575273-122.856727-272.919273-263.168-282.135273-269.824a47.941818 47.941818 0 0 0-28.648727-10.216727c-10.24 0-19.968 3.072-28.672 10.216727-9.216 6.656-190.976 148.503273-282.112 274.944-29.184 46.08-75.776 103.424-75.776 184.32 0 136.192 75.776 231.936 200.192 231.936 69.12 0 144.384-66.048 186.368-123.392 42.496 57.344 117.248 123.392 186.368 123.392 124.928 0 205.847273-95.744 205.847272-231.936-0.023273-80.872727-51.758545-143.848727-81.431272-189.44z"  horiz-adv-x="1024" />

    
    <glyph glyph-name="xingxing2" unicode="&#58746;" d="M378.68521245 139.78373689a39.07401955 39.07401955 0 0 0-39.00120178 41.52069689l7.89344711 126.00388267-81.59960178 100.47396977a39.07401955 39.07401955 0 0 0 21.02977422 62.56503467l123.38244267 30.277632 68.52152889 109.25579378a39.07401955 39.07401955 0 0 0 66.20592355 0.01456355l68.52152889-109.25579377 123.38244267-30.277632a39.059456 39.059456 0 0 0 21.04433778-62.57959823l-81.59960178-100.45940622 7.63130311-122.07172267a39.17596445 39.17596445 0 0 0-52.690944-42.90423466L512 187.84347021999997l-119.39202845-45.49654755a39.17596445 39.17596445 0 0 0-13.9227591-2.56318578z"  horiz-adv-x="1024" />

    
    <glyph glyph-name="icon-test" unicode="&#58900;" d="M632 214c-74.3 0-148.6 28.3-205.2 84.8-113.1 113.1-113.1 297.2 0 410.3 113.1 113.1 297.2 113.1 410.3 0s113.1-297.2 0-410.3C780.6 242.3 706.3 214 632 214z m0 541.3c-64.4 0-128.8-24.5-177.8-73.5-98-98-98-257.6 0-355.6 98.1-98.1 257.6-98 355.6 0s98 257.6 0 355.6c-49 49-113.4 73.5-177.8 73.5zM624.1 394c-22.7 0-48.4 11.2-69.6 32.4-35.3 35.3-42.9 83-17.3 108.5 5 5 13.2 5 18.2 0s5-13.2 0-18.2c-14.8-14.8-6.9-47.8 17.3-72.1 24.2-24.2 57.2-32.2 72.1-17.3 14.8 14.8 6.9 47.8-17.3 72.1-35.3 35.3-42.9 83-17.3 108.5 25.6 25.5 73.2 18 108.5-17.3s42.9-83 17.3-108.5c-5-5-13.2-5-18.2 0s-5 13.2 0 18.2c14.8 14.8 6.9 47.8-17.3 72.1-24.2 24.2-57.2 32.2-72.1 17.3-14.8-14.8-6.9-47.8 17.3-72.1 35.3-35.3 42.9-83 17.3-108.5-10.2-10.2-23.9-15.1-38.9-15.1zM522.6 381.7c-3.3 0-6.6 1.3-9.1 3.8-5 5-5 13.2 0 18.2l218.8 218.8c5 5 13.2 5 18.2 0s5-13.2 0-18.2L531.7 385.4c-2.5-2.5-5.8-3.7-9.1-3.7zM176.1-26c-4.9 0-9.9 1.9-13.7 5.7l-54.7 54.7c-7.6 7.5-7.6 19.8 0 27.4l200.6 200.6c7.6 7.6 19.8 7.6 27.4 0l54.7-54.7c7.6-7.5 7.6-19.8 0-27.4L189.7-20.3c-3.7-3.8-8.7-5.7-13.6-5.7z m-27.4 74.1l27.4-27.4L349.3 194 322 221.3 148.7 48.1zM349.3 202c-4.9 0-9.9 1.9-13.7 5.7-7.6 7.5-7.6 19.8 0 27.4l91.2 91.2c7.6 7.6 19.8 7.6 27.4 0 7.6-7.5 7.6-19.8 0-27.4L363 207.6c-3.8-3.7-8.7-5.6-13.7-5.6z"  horiz-adv-x="1024" />

    
    <glyph glyph-name="iconset0316" unicode="&#58629;" d="M863.56250027 16.617187230000013L863.56250027 16.617187230000013l-70.31249973 527.34375 0 0c-1.75781223 8.78906277-8.78906277 15.8203125-17.57812471 15.8203125l-123.04687473 0 0 70.31249973c0 77.34375027-63.28125 140.62500027-140.62500027 140.62500027s-140.62500027-63.28125-140.62500029-140.62500027l0-70.31249973L248.328125 559.78124973c-8.78906277 0-15.8203125-7.03124973-17.57812473-15.8203125l0 0-70.31249972-527.34375 0 0c0 0 0-1.75781223 0-1.75781223 0-10.546875 7.03124973-17.57812473 17.57812472-17.57812473l667.96875027 0c10.546875 0 17.57812473 7.03124973 17.57812473 17.57812473C863.56250027 14.859375 863.56250027 16.617187230000013 863.56250027 16.617187230000013zM406.53125 630.09375027c0 58.0078125 47.4609375 105.46875 105.46875 105.46875 58.0078125 0 105.46875-47.4609375 105.46875-105.46875l0-70.31249973L406.53125 559.78124973 406.53125 630.09375027zM264.1484375 524.62500027L371.37499973 524.62500027l0-75.58593723c-10.546875-5.2734375-17.57812473-17.57812473-17.57812473-29.88281277 0-19.33593777 15.8203125-35.15625027 35.15625027-35.15625027s35.15625027 15.8203125 35.15625027 35.15625027c0 12.30468723-7.03124973 24.60937527-17.57812472 29.88281277L406.53125 524.62500027l210.9375 0 0-75.58593723c-10.546875-5.2734375-17.57812473-17.57812473-17.57812473-29.88281277 0-19.33593777 15.8203125-35.15625027 35.15625027-35.15625027s35.15625027 15.8203125 35.15625029 35.15625027c0 12.30468723-7.03124973 24.60937527-17.57812473 29.88281277L652.62500027 524.62500027l107.22656223 0 56.25000027-421.875L207.89843723 102.75000026999999 264.1484375 524.62500027zM197.35156223 32.43749973000001l5.2734375 35.15625027 618.74999972 0 5.2734375-35.15625027L197.35156223 32.43749973000001z"  horiz-adv-x="1024" />

    
    <glyph glyph-name="xingxing3" unicode="&#58630;" d="M679.23069478 420.47858892c1.516225 1.56081981 0.6243279 4.19191605-1.51622496 4.50408001l-111.57631953 17.0352335c-0.89189706 0.13378458-1.6500095 0.71351762-2.00676836 1.5162249l-50.08001874 106.58169617c-0.98108676 2.05136317-3.87975213 2.05136317-4.86083887 0l-50.08001869-106.58169617c-0.40135365-0.80270732-1.11487127-1.38244045-2.00676835-1.5162249l-111.57631962-17.03523351c-2.14055292-0.31216398-3.03244992-2.9432602-1.51622492-4.50408001l80.89506143-82.81264007a2.7648808 2.7648808 0 0 0 0.71351763-2.31893231l-19.1311915-117.15067608c-0.35675882-2.18514775 1.96217346-3.83515727 3.92434694-2.76488079l99.8924684 55.16383185c0.80270732 0.44594849 1.78379412 0.44594849 2.58650142 0L612.78436539 215.43145964999997c1.96217346-1.07027645 4.28110581 0.57973309 3.92434696 2.7648808L597.62211571 335.39161139c-0.13378458 0.8473022 0.13378458 1.69460436 0.71351764 2.3189323L679.23069478 420.47858892z"  horiz-adv-x="1024" />

    
    <glyph glyph-name="zaixianzixun" unicode="&#59246;" d="M515.53 125.769c4.367 0 8.813 0.267 13.285 0.8 42.89 5.147 79.31 35.125 92.754 76.438 1.013 3.093-0.452 6.4-3.407 7.76-2.929 1.36-6.47 0.187-8.12-2.586-0.16-0.267-17.199-27.791-83.543-36.752-9.93-1.334-19.594-2.028-28.753-2.028-46.483 0.027-67.196 17.55-67.382 17.71-2.343 2.08-5.91 2.133-8.306 0.106-2.423-2.027-2.982-5.547-1.332-8.242 20.234-32.804 56.547-53.206 94.804-53.206z m356.723 411.153c-0.586 0-1.119-0.107-1.677-0.107-38.87 168.291-187.4 293.83-365.481 293.83-182.98 0-334.917-132.474-368.596-307.725-32.746-5.894-57.666-34.672-57.666-69.477v-139.301c0-39.045 31.31-70.703 69.966-70.703 21.805 0 41.053 10.294 53.859 26.11 30.934-81.822 93.922-147.803 173.627-182.61 0.191 0.416 1.7 3.349 3.514 5.686 1.258 1.62 2.66 2.952 3.868 2.952 1.252 0 2.397-0.453 3.381-1.147-18.45 13.736-85.087 84.333-99.516 182.853-6.337 43.367 26.143 85.933 63.975 92.974 60.727 11.309 121.135 24.19 181.862 35.285 38.603 7.041 64.987 28.217 81.12 63.475 3.78 8.242 9.239 24.91 11.742 48.94 0.665 3.574 3.593 6.322 7.348 6.322 2.503 0 4.633-1.28 6.044-3.12l1.677 1.04c23.934-34.752 71.403-111.696 78.218-192.828 7.828-92.76 3.461-156.29-67.542-221.286-0.08-0.08-0.186-0.186-0.293-0.267a5.821 5.821 0 0 1-1.57-3.974c0-2 1.065-3.707 2.609-4.747 0.585-0.24 1.172-0.56 1.757-0.8 0.479-0.106 0.931-0.267 1.411-0.267s0.906 0.16 1.331 0.267c1.013 0.533 1.97 1.147 2.956 1.68 71.802 39.553 126.885 105.616 152.336 185.067 10.303-15.308 26.436-26.323 45.18-30.164-30.058-136.713-151.991-222.272-303.05-235.26-9.053 22.456-31.336 38.405-57.507 38.405-34.183 0-61.898-27.07-61.898-60.436s27.714-60.408 61.898-60.408c27.555 0 50.638 17.709 58.651 42.032 174.86 14.216 315.03 118.15 344.29 279.64 25.85 10.803 44.007 36.166 44.007 65.77V465.579c-0.002 39.392-32.164 71.344-71.831 71.344z m-64.508-40.486c-45.605 123.537-163.785 211.79-302.81 211.79-138.44 0-256.193-87.506-302.224-210.243-2.29 2.8-4.979 5.2-7.615 7.628 26.064 149.568 154.787 263.291 309.999 263.291 154.467 0 282.79-112.602 309.705-261.131-2.662-3.574-5.112-7.309-7.055-11.335z m-431.453-409.5l-0.008 0.003c-0.029-0.064-0.03-0.072 0.008-0.003z"  horiz-adv-x="1024" />

    
    <glyph glyph-name="iconzhengli-" unicode="&#58917;" d="M686.08 237.226667H398.677333c-47.786667 0-88.064 35.498667-94.208 82.602666L266.24 585.386667c-0.682667 6.144 0.682667 11.605333 4.778667 16.384s9.557333 6.826667 15.701333 6.826666h492.885333c32.085333 0 61.44-15.701333 79.189334-43.008 17.749333-26.624 20.48-60.074667 7.509333-90.112 0-0.682667-0.682667-0.682667-0.682667-1.365333l-92.842666-181.589333c-15.018667-32.768-49.152-55.296-86.698667-55.296zM309.930667 567.637333l35.498666-242.346666c3.413333-27.306667 26.624-47.104 53.248-47.104h287.402667c21.162667 0 40.96 12.970667 49.152 32.085333 0 0.682667 0.682667 0.682667 0.682667 1.365333L828.757333 493.226667c6.826667 17.066667 5.461333 34.816-4.778666 50.517333-10.24 15.701333-26.624 24.576-45.056 24.576H309.930667zM615.765333 336.896H464.896c-19.797333 0-36.181333 14.336-38.912 34.133333l-15.018667 101.034667c-2.730667 20.48 12.970667 38.229333 33.450667 38.229333h219.136c27.989333 0 47.104-28.672 35.498667-54.613333l-48.469334-95.573333c-5.461333-14.336-19.797333-23.210667-34.816-23.210667zM319.488 344.405333c-10.24 0-19.114667 7.509333-20.48 17.749334L252.586667 687.104c-1.365333 11.605333-11.605333 20.48-22.528 20.48H122.88c-11.605333 0-20.48 8.874667-20.48 20.48s8.874667 20.48 20.48 20.48h107.178667c32.085333 0 59.392-23.893333 63.488-55.978667l46.421333-324.949333c1.365333-10.922667-6.144-21.845333-17.749333-23.210667h-2.730667zM380.928 1.024c-50.517333 0-91.477333 40.96-91.477333 91.477333s40.96 91.477333 91.477333 91.477334 91.477333-40.96 91.477333-91.477334-40.96-91.477333-91.477333-91.477333z m0 141.994667c-27.989333 0-50.517333-22.528-50.517333-50.517334 0-27.989333 22.528-50.517333 50.517333-50.517333 27.989333 0 50.517333 22.528 50.517333 50.517333-0.682667 27.989333-23.210667 50.517333-50.517333 50.517334zM703.146667 1.024c-50.517333 0-91.477333 40.96-91.477334 91.477333s40.96 91.477333 91.477334 91.477334 91.477333-40.96 91.477333-91.477334-40.96-91.477333-91.477333-91.477333z m0 141.994667c-27.989333 0-50.517333-22.528-50.517334-50.517334 0-27.989333 22.528-50.517333 50.517334-50.517333 27.989333 0 50.517333 22.528 50.517333 50.517333 0 27.989333-22.528 50.517333-50.517333 50.517334z"  horiz-adv-x="1024" />

    
    <glyph glyph-name="weizhi3" unicode="&#58902;" d="M511.306269-128c-62.861356 0-187.435166 143.120372-244.387883 218.783779C214.725406 159.882032 93.270045 336.156435 93.270045 477.47139a418.200353 418.200353 0 0 0 837.057221 0c0-141.314954-121.455361-317.589357-173.648341-386.687611-57.93749-75.663408-182.347171-218.783779-245.372656-218.783779z m0 974.268953A369.28995 369.28995 0 0 1 142.508705 477.47139c0-213.367527 315.127424-554.75557 368.797564-556.23273C565.140537-77.28418 881.088606 264.596249 881.088606 477.47139A369.28995 369.28995 0 0 1 511.306269 846.268953zM511.306269 332.217343A182.675429 182.675429 0 1 0 693.981697 514.892771a182.839558 182.839558 0 0 0-182.675428-182.675428z m0 299.69931a117.023882 117.023882 0 1 1 117.023882-117.023882 117.188011 117.188011 0 0 1-117.023882 117.023882z"  horiz-adv-x="1024" />

    
    <glyph glyph-name="xingxing4" unicode="&#58993;" d="M511.9 688.8l99.2-201 221.8-32.2-160.5-156.5 37.9-220.9-198.4 104.3-198.4-104.3 37.9 220.9-160.5 156.5 221.8 32.2 99.2 201z m0 0"  horiz-adv-x="1024" />

    
    <glyph glyph-name="shoucang3" unicode="&#58919;" d="M707.584 802.816c-77.312 0-148.992-38.912-196.608-102.912-47.104 64-119.296 102.912-196.608 102.912-139.264 0-252.416-123.904-252.416-275.968 0-90.624 40.448-154.624 73.216-205.824C229.888 172.032 468.48-12.8 478.72-20.48c9.728-7.68 20.992-11.264 32.256-11.264s22.528 3.584 32.256 11.264c10.24 7.68 248.32 193.024 343.552 341.504 32.768 51.2 73.216 115.2 73.216 205.824 0 152.064-113.152 275.968-252.416 275.968z"  horiz-adv-x="1024" />

    
    <glyph glyph-name="weizhi4" unicode="&#58696;" d="M512 528c-44.2 0-80-35.8-80-80s35.8-80 80-80 80 35.8 80 80-35.8 80-80 80m0-112c-17.6 0-32 14.3-32 32 0 17.6 14.3 32 32 32 17.6 0 32-14.4 32-32 0-17.7-14.4-32-32-32m0 223.9c-106 0-192-86-192-192 0-38.4 11.2-74.1 30.6-104.1l127.7-197.6c7.1-11 19.5-18.3 33.6-18.3 14.1 0 26.5 7.3 33.6 18.3l127.7 197.6c19.4 30 30.6 65.7 30.6 104.1 0.2 106.1-85.8 192-191.8 192M633 370L512 182.79999999999995 391 370c-15 23.2-23 50.2-23 78 0 79.4 64.6 144 144 144s144-64.6 144-144c0-27.8-8-54.8-23-78"  horiz-adv-x="1024" />

    
    <glyph glyph-name="liwu" unicode="&#58632;" d="M424.579 545.692c-1.453 17.972-8.841 33.53-19.486 42.982 62.527 82.334 211.374 102.052 224.287 55.141 12.39-44.873 16.925-160.681 5.524-180.11-14.017-23.788-144.075-13.725-222.306 34.668 7.561 10.673 12.213 25.04 12.213 40.949 0 0 72.767 51.476 160.944 31.873-79.395 25.156-161.176-25.503-161.176-25.503z m170.017-308.48c-2.502 29.287 18.79 96.904 40.308 136.253-16.403 1.947-55.374 33.997-96.903 72.358-43.855 6.775-93.761 22.074-130.523 46.472-2.093-2.153-4.362-4.1-6.748-5.67 34.843-72.474 117.73-228.474 193.866-249.412zM110.721 643.817c-12.392-44.873-16.928-160.681-5.527-180.11 14.017-23.788 144.075-13.725 222.309 34.668-7.564 10.673-12.216 25.04-12.216 40.949 0 0-72.767 51.476-160.884 31.873 79.335 25.156 161.116-25.503 161.116-25.503 1.453 17.972 8.841 33.53 19.545 42.982-62.53 82.334-211.433 102.052-224.343 55.141z m91.376-197.994c-41.529-38.36-80.5-70.41-96.903-72.358 21.522-39.35 42.809-106.966 40.308-136.252 76.14 20.938 159.026 176.938 193.866 249.412-2.385 1.569-4.594 3.517-6.748 5.67-36.76-24.398-86.665-39.697-130.523-46.472z m215.853 93.5c0 28.53-17.22 51.65-38.45 51.65H360.6c-21.23 0-38.39-23.12-38.39-51.65s17.16-51.708 38.39-51.708H379.5c21.23 0 38.45 23.178 38.45 51.708zM81.288 651.932c5.352 19.657 21.055 32.514 35.889 38.619 15.239 6.456 31.523 8.64 48.915 8.726 44.555-0.554 99.173-15.329 144.716-46.94V832.184H183.89c-66.017 0-120.054-54.037-120.054-120.055v-124.793h7.273c2.209 24.313 5.524 47.229 10.178 64.594zM837.261 832.184H428.3v-180.516c45.775 32.077 100.802 47.054 145.704 47.577 17.392-0.056 33.62-2.24 48.858-8.696 14.834-6.105 30.537-18.961 35.888-38.62v-0.03c4.652-17.334 7.97-40.251 10.18-64.564h288.325V712.13c0 66.019-53.977 120.056-119.995 120.056zM661.139 448.179c-11.052-16.666-24.024-19.893-35.657-23.298-4.48-1.075-9.131-1.832-13.958-2.442 12.97-10.498 25.125-17.624 28.035-18.845l43.682-5.205-21.58-39.551c-8.842-16.056-18.556-39.728-25.593-62.27-7.097-22.245-11.4-44.61-11.168-54.265 0-0.932 0-1.775 0.116-2.471l3.723-43.626-42.229 11.632c-53.22 16.114-92.656 65.145-129.534 117.553-10.12 14.86-19.658 30.13-28.676 45.225v-431.85h408.96c66.017 0 119.995 53.977 119.995 119.995V476.562H669.456c-1.281-9.393-2.502-17.451-8.317-28.383z m-560.54-44.499c0.988 0.409 2.966 1.367 5.351 2.82 4.944 2.88 11.864 7.621 19.66 13.67 0.93 0.726 1.92 1.573 2.85 2.27-4.77 0.61-9.422 1.367-13.9 2.441-11.636 3.405-24.666 6.602-35.657 23.413-5.76 10.817-7.037 18.875-8.258 28.268h-6.808v-77.36l36.529 4.392c0.06 0.029 0.116 0.057 0.232 0.086z m52.988-195.843l-42.054-11.573 3.607 43.476c0 0.524 0.057 1.427 0.057 2.588 0.176 9.629-4.071 32.02-11.284 54.299-6.978 22.482-16.636 46.154-25.418 62.235L63.837 385.62v-326.86c0-66.018 54.037-119.995 120.054-119.995h126.917v430.19c-8.726-14.542-17.973-29.226-27.744-43.566-36.82-52.407-76.256-101.412-129.477-117.552z"  horiz-adv-x="1024" />

    
    <glyph glyph-name="shoucang-active" unicode="&#58633;" d="M752-43.200000000000045c-9.6 0-20.8 3.2-30.4 8l-208 104L304-35.200000000000045c-20.8-11.2-48-9.6-67.2 4.8-19.2 14.4-30.4 40-25.6 64l43.2 224-164.8 153.6c-17.6 17.6-24 44.8-17.6 67.2 8 24 27.2 41.6 52.8 44.8l228.8 41.6 102.4 208c11.2 22.4 33.6 36.8 57.6 36.8s48-14.4 57.6-36.8l102.4-208 228.8-40c24-3.2 44.8-20.8 51.2-44.8 8-24 1.6-49.6-16-67.2l-164.8-155.2 41.6-224c4.8-25.6-6.4-49.6-25.6-64-9.6-8-22.4-12.8-36.8-12.8z"  horiz-adv-x="1024" />

    
    <glyph glyph-name="shoucang4" unicode="&#58910;" d="M736.25 856.637c-88.104 0-169.783-44.344-224.05-117.273C458.527 812.298 376.259 856.637 288.154 856.637 129.459 856.637 0.512 715.443 0.512 542.157c0-103.27 46.09-176.205 83.43-234.547 107.94-169.79 379.833-380.411 391.496-389.166a58.808 58.808 0 0 1 36.757-12.836c12.835 0 25.671 4.085 36.756 12.836 11.674 8.755 282.977 219.965 391.5 389.166 37.346 58.347 83.436 131.276 83.436 234.547 0.005 173.286-128.937 314.48-287.636 314.48z m130.105-547.276c-99.763-140.027-310.973-299.894-321.48-307.477-9.917-7.588-21.59-11.673-32.675-11.673-11.669 0-22.754 3.502-32.671 11.673-10.506 7.578-217.63 169.196-321.485 313.308C124.79 367.703 71.695 433.05 71.695 525.23c0 155.203 86.35 264.305 228.132 264.305 78.766 0 164.537-75.264 212.373-140.61 48.43 65.346 133.611 140.61 212.377 140.61 142.362 0 234.553-109.102 234.553-264.305 0-92.175-58.937-163.942-92.775-215.87z"  horiz-adv-x="1024" />

    
    <glyph glyph-name="shoucang21" unicode="&#58885;" d="M1024 512c0 0-115.2-153.6-262.4-268.8 0 0 0 0 0 0s0 0 0 0c0 0 0 0 0 0C819.2 44.799999999999955 832-128 832-128l-320 192c0 0 0 0 0 0 0 0 0 0 0 0-153.6-108.8-320-192-320-192s12.8 172.8 70.4 371.2c0 0 0 0 0 0s0 0 0 0c0 0 0 0 0 0C115.2 352 0 512 0 512l352 32L512 896l160-352L1024 512z"  horiz-adv-x="1024" />

    
    <glyph glyph-name="xingxing5" unicode="&#58921;" d="M370.036364 200.145455l37.236363 128c2.327273 4.654545 0 9.309091-4.654545 13.963636L295.563636 430.545455c-9.309091 6.981818-4.654545 20.945455 6.981819 20.945454l132.654545 4.654546c4.654545 0 9.309091 4.654545 11.636364 9.30909l41.890909 130.327273c4.654545 11.636364 18.618182 11.636364 23.272727 0l48.872727-130.327273c2.327273-4.654545 6.981818-6.981818 11.636364-6.981818l125.672727-2.327272c11.636364 0 16.290909-13.963636 6.981818-20.945455l-100.072727-93.090909c-2.327273-2.327273-4.654545-6.981818-4.654545-11.636364l32.581818-128c2.327273-11.636364-9.309091-18.618182-18.618182-13.963636l-104.727273 69.818182c-4.654545 2.327273-9.309091 2.327273-13.963636 0l-109.381818-69.818182c-6.981818-6.981818-20.945455 2.327273-16.290909 11.636364z"  horiz-adv-x="1024" />

    
    <glyph glyph-name="zuixiaoxingxingpingfen" unicode="&#58882;" d="M1061.65626 548.788801c1.137651-3.640484-1.137651-9.101211-6.484612-14.334407l-99.43073-97.838018-94.311299-92.604822a91.353405 91.353405 0 0 1-23.549383-73.037218l45.733585-268.485724c0.910121-6.484613 0.22753-11.831574-1.934008-14.561937-1.137651-1.478947-3.185424-2.161538-5.574491-2.161538a24.8008 24.8008 0 0 0-11.035219 3.412954l-58.47528 31.057883-180.659038 95.790245a80.773247 80.773247 0 0 1-37.997556 8.532386 84.527497 84.527497 0 0 1-37.997556-8.532386l-155.175647-82.252194-84.186201-44.595934a24.8008 24.8008 0 0 0-11.035219-3.412954c-2.389068 0-4.323075 0.682591-5.574491 2.275303-2.389068 2.616598-3.071659 7.96356-1.934008 14.448172l45.733585 268.485724a91.353405 91.353405 0 0 1-23.549383 73.037218l-75.995112 75.084991-117.405621 115.357849c-5.346961 5.346961-7.96356 10.693923-6.825909 14.334407 1.023886 3.640484 6.257083 6.257083 13.765582 7.508499l267.461838 39.021442a89.874458 89.874458 0 0 1 61.660704 45.16476L576.675481 885.078547c3.412954 6.712143 7.394734 10.807688 11.376513 10.807688 3.412954 0 7.849794-4.095545 11.262749-10.921453l119.453394-244.25375a89.874458 89.874458 0 0 1 61.660704-45.164759l267.461838-39.248973c7.508499-1.023886 12.514165-3.868015 13.651816-7.508499z m1137.651372 0c1.137651-3.640484-1.137651-9.101211-6.484612-14.334407l-99.43073-97.838018-94.311299-92.604822a91.353405 91.353405 0 0 1-23.549383-73.037218l45.733585-268.485724c0.910121-6.484613 0.22753-11.831574-1.934008-14.561937-1.137651-1.478947-3.185424-2.161538-5.574491-2.161538a24.8008 24.8008 0 0 0-11.035219 3.412954l-58.47528 31.057883-180.659038 95.790245a80.773247 80.773247 0 0 1-37.997556 8.532386 84.527497 84.527497 0 0 1-37.997556-8.532386l-155.175647-82.252194-84.186201-44.595934a24.8008 24.8008 0 0 0-11.035219-3.412954c-2.389068 0-4.323075 0.682591-5.574491 2.275303-2.389068 2.616598-3.071659 7.96356-1.934008 14.448172l45.733585 268.485724a91.353405 91.353405 0 0 1-23.549383 73.037218l-75.995112 75.084991-117.405621 115.357849c-5.346961 5.346961-7.96356 10.693923-6.825908 14.334407 1.023886 3.640484 6.257083 6.257083 13.765581 7.508499l267.461838 39.021442a89.874458 89.874458 0 0 1 61.660704 45.16476l119.79469 244.595045c3.412954 6.712143 7.394734 10.807688 11.376513 10.807688 3.412954 0 7.849794-4.095545 11.262749-10.921453l119.453394-244.25375a89.874458 89.874458 0 0 1 61.660704-45.164759l267.461838-39.248973c7.508499-1.023886 12.514165-3.868015 13.651816-7.508499z m1137.651373 0c1.137651-3.640484-1.137651-9.101211-6.484613-14.334407l-99.43073-97.838018-94.311299-92.604822a91.353405 91.353405 0 0 1-23.549383-73.037218l45.733585-268.485724c0.910121-6.484613 0.22753-11.831574-1.934008-14.561937-1.137651-1.478947-3.185424-2.161538-5.574491-2.161538a24.8008 24.8008 0 0 0-11.035219 3.412954l-58.47528 31.057883-180.659038 95.790245a80.773247 80.773247 0 0 1-37.997556 8.532386 84.527497 84.527497 0 0 1-37.997556-8.532386l-155.175647-82.252194-84.186201-44.595934a24.8008 24.8008 0 0 0-11.035219-3.412954c-2.389068 0-4.323075 0.682591-5.574491 2.275303-2.389068 2.616598-3.071659 7.96356-1.934008 14.448172l45.733586 268.485724a91.353405 91.353405 0 0 1-23.549384 73.037218l-75.995112 75.084991-117.405621 115.357849c-5.346961 5.346961-7.96356 10.693923-6.825908 14.334407 1.023886 3.640484 6.257083 6.257083 13.765581 7.508499l267.461838 39.021442a89.874458 89.874458 0 0 1 61.660704 45.16476l119.79469 244.595045c3.412954 6.712143 7.394734 10.807688 11.376513 10.807688 3.412954 0 7.849794-4.095545 11.262749-10.921453l119.453394-244.25375a89.874458 89.874458 0 0 1 61.660704-45.164759l267.461838-39.248973c7.508499-1.023886 12.514165-3.868015 13.651816-7.508499z m1137.651372 0c1.137651-3.640484-1.137651-9.101211-6.484613-14.334407l-99.43073-97.838018-94.311299-92.604822a91.353405 91.353405 0 0 1-23.549383-73.037218l45.733585-268.485724c0.910121-6.484613 0.22753-11.831574-1.934007-14.561937-1.137651-1.478947-3.185424-2.161538-5.574492-2.161538a24.8008 24.8008 0 0 0-11.035218 3.412954l-58.475281 31.057883-180.659038 95.790245a80.773247 80.773247 0 0 1-37.997556 8.532386 84.527497 84.527497 0 0 1-37.997556-8.532386l-155.175647-82.252194-84.186201-44.595934a24.8008 24.8008 0 0 0-11.035219-3.412954c-2.389068 0-4.323075 0.682591-5.574491 2.275303-2.389068 2.616598-3.071659 7.96356-1.934008 14.448172l45.733586 268.485724a91.353405 91.353405 0 0 1-23.549384 73.037218l-75.995111 75.084991-117.405622 115.357849c-5.346961 5.346961-7.96356 10.693923-6.825908 14.334407 1.023886 3.640484 6.257083 6.257083 13.765581 7.508499l267.461838 39.021442a89.874458 89.874458 0 0 1 61.660704 45.16476l119.79469 244.595045c3.412954 6.712143 7.394734 10.807688 11.376513 10.807688 3.412954 0 7.849794-4.095545 11.262749-10.921453l119.453394-244.25375a89.874458 89.874458 0 0 1 61.660704-45.164759l267.461838-39.248973c7.508499-1.023886 12.514165-3.868015 13.651816-7.508499z"  horiz-adv-x="4475" />

    
    <glyph glyph-name="huanyexialajiantou" unicode="&#59204;" d="M827.6736 537.5232c0 11.8656-3.9296 22.1184-11.712 30.8224-7.7824 8.7168-17.024 13.0304-27.7376 12.9536H235.7504c-10.6752 0-19.9296-4.3136-27.7376-12.9536-7.8592-8.6272-11.7504-18.9568-11.6864-30.8224 0.0384-11.9552 3.9296-22.1952 11.6864-30.912l276.1856-306.8928c7.7824-8.7168 17.0368-13.0304 27.8144-13.0304 10.7136 0 19.9552 4.3136 27.7376 13.0304L815.9616 506.624c7.7824 8.704 11.712 18.9568 11.712 30.8992z m0 0"  horiz-adv-x="1024" />

    
    <glyph glyph-name="fangdajing" unicode="&#58894;" d="M960.4-18.700000000000045l-166 166C856.5 219.79999999999995 894 314 894 417c0 229.2-185.8 415-415 415S64 646.2 64 417s185.8-415 415-415c103.2 0 197.6 37.7 270.2 100l166-166 45.2 45.3zM479 66c-47.4 0-93.4 9.3-136.6 27.6-41.8 17.7-79.3 43-111.6 75.2s-57.6 69.8-75.2 111.6C137.3 323.6 128 369.6 128 417s9.3 93.4 27.6 136.6c17.7 41.8 43 79.3 75.2 111.6s69.8 57.6 111.6 75.2C385.6 758.7 431.6 768 479 768s93.4-9.3 136.6-27.6c41.8-17.7 79.3-43 111.6-75.2s57.6-69.8 75.2-111.6C820.7 510.4 830 464.4 830 417s-9.3-93.4-27.6-136.6c-17.7-41.8-43-79.3-75.2-111.6s-69.8-57.6-111.6-75.2C572.4 75.29999999999995 526.4 66 479 66zM385.6 195.79999999999995c-28.6 12.1-54.2 29.4-76.3 51.5-22.1 22.1-39.4 47.7-51.5 76.3-12.5 29.6-18.8 61-18.8 93.4h-40c0-154.6 125.4-280 280-280v40c-32.4 0-63.8 6.3-93.4 18.8z"  horiz-adv-x="1024" />

    
    <glyph glyph-name="gouwudai3" unicode="&#58948;" d="M858.157176 559.841882a38.174118 38.174118 0 0 1-38.144 38.174118H206.471529a38.189176 38.189176 0 0 1-38.174117-38.174118L117.714824-38.942118c0-21.082353 17.106824-38.174118 38.174117-38.174117h714.736941a38.189176 38.189176 0 0 1 38.174118 38.174117l-50.642824 598.784z m-18.236235-602.729411H186.578824a28.280471 28.280471 0 0 0-28.280471 28.295529l38.4 550.068706c0 15.631059 12.664471 28.280471 28.280471 28.28047h578.379294c15.616 0 28.265412-12.664471 28.265411-28.28047l36.623059-550.068706a28.340706 28.340706 0 0 0-28.325647-28.295529zM528.459294 850.823529h-30.358588C394.390588 850.823529 310.377412 766.765176 310.377412 663.100235V476.009412h34.575059V646.264471c0 92.867765 75.294118 168.161882 168.161882 168.161882s168.161882-75.294118 168.161882-168.161882v-170.270118h34.891294V663.100235C716.167529 766.780235 632.109176 850.823529 528.459294 850.823529z"  horiz-adv-x="1024" />

    
    <glyph glyph-name="qiehuanye-zuo" unicode="&#58954;" d="M390.144 384l331.946667 331.946667a42.666667 42.666667 0 1 1-60.416 60.245333L299.690667 414.208a42.496 42.496 0 0 1 0-60.416l361.984-361.984a42.666667 42.666667 0 0 1 60.330666 60.330667L390.144 384z"  horiz-adv-x="1024" />

    
    <glyph glyph-name="biaodanyouce_huanyeqiyou" unicode="&#58636;" d="M374.4 736L320 681.6l291.84-291.456L320 98.688l54.4-54.4 345.472 345.856z"  horiz-adv-x="1024" />

    
    <glyph glyph-name="biaodanyouce_huanyeqizuo" unicode="&#58637;" d="M665.536 736l54.336-54.4-291.84-291.456 291.84-291.456-54.4-54.4L320 390.208z"  horiz-adv-x="1024" />

    
    <glyph glyph-name="gouwudai4" unicode="&#58883;" d="M843.49 526.654h-94.294v70.593c0 142.034-63.6 222.516-183.554 227.93-4.434 0.212-15.174 0.893-19.522 0.681 41.093-20.888 50.813-39.986 64.707-56.61 59.935-17.562 84.49-78.563 84.49-172.001v-70.593h-68.29v72.767c0 145.147-70.593 231.808-188.67 231.808-118.163 0-188.668-86.661-188.668-231.808v-72.767h-96.17L110.38-63.61h801.399L843.49 526.654zM303.57 599.421c0 116.373 46.549 177.884 134.787 177.884 88.153 0 134.704-61.51 134.704-177.884v-72.767H425.74v70.593c0 81.631 18.413 115.818 58.397 146.382-16.283 11.554-42.201 17.052-63.769 8.996-40.412-42.245-48.512-71.787-48.512-155.377v-70.593H303.57v72.766zM656.61-9.684H166.137l35.04 490.514h490.474l-35.04-490.514z"  horiz-adv-x="1024" />

    
    <glyph glyph-name="qiyeduan-disanfangzhanghaobangding-weibo" unicode="&#58895;" d="M388.740741 415.288889c41.718519 2.844444 84.385185-0.948148 126.103703-9.481482 45.511111-9.481481 87.22963-28.444444 125.155556-54.992592 20.859259-15.17037 38.874074-35.081481 52.148148-56.888889 12.325926-20.859259 19.911111-44.562963 20.859259-69.214815 0.948148-35.081481-10.42963-69.214815-31.288888-97.659259-21.807407-29.392593-48.355556-53.096296-79.644445-71.111111-72.059259-41.718519-155.496296-61.62963-237.985185-57.837037-53.096296 0.948148-105.244444 13.274074-154.548148 35.081481-39.822222 17.066667-74.903704 45.511111-99.555556 80.592593-22.755556 31.288889-31.288889 69.214815-24.651852 106.192592 7.585185 36.977778 26.548148 70.162963 53.096297 95.762963 23.703704 23.703704 51.2 42.666667 81.54074 56.888889 53.096296 25.6 109.985185 39.822222 168.770371 42.666667z m-14.222222-83.437037c-18.962963-0.948148-37.925926-5.688889-55.940741-12.325926-39.822222-15.17037-73.955556-43.614815-93.866667-81.540741-11.377778-21.807407-16.118519-45.511111-15.17037-70.162963 1.896296-28.444444 13.274074-55.940741 33.185185-76.8 15.17037-17.066667 35.081481-30.340741 56.888889-38.874074 49.303704-18.962963 104.296296-16.118519 151.703704 7.585185 37.925926 18.014815 68.266667 50.251852 84.385185 89.125926 10.42963 27.496296 11.377778 57.837037 1.896296 86.281482-6.637037 20.859259-18.962963 39.822222-35.081481 54.992592-35.081481 31.288889-81.540741 46.459259-128 41.718519M410.548148 226.607407c10.42963 2.844444 20.859259-3.792593 23.703704-13.274074 2.844444-10.42963-1.896296-20.859259-12.325926-24.651852-10.42963-3.792593-21.807407 0.948148-25.6 11.377778-1.896296 5.688889-1.896296 11.377778 0.948148 16.118519 2.844444 4.740741 7.585185 8.533333 13.274074 10.429629z m-90.074074-20.859259c14.222222 1.896296 28.444444-1.896296 38.874074-11.377778 9.481481-7.585185 15.17037-18.014815 17.066667-30.34074 1.896296-17.066667-4.740741-34.133333-17.066667-45.511111-8.533333-8.533333-19.911111-13.274074-32.237037-15.170371-13.274074-1.896296-26.548148 1.896296-36.977778 10.42963-9.481481 6.637037-15.17037 17.066667-17.066666 29.392592-2.844444 16.118519 2.844444 33.185185 14.222222 44.562963 8.533333 10.42963 19.911111 16.118519 33.185185 18.014815z m0 0M714.903704 833.422222H760.414815c3.792593-0.948148 7.585185-1.896296 11.377778-0.948148 4.740741-0.948148 10.42963-0.948148 15.17037-2.844444 4.740741 0 8.533333-0.948148 13.274074-2.844445 8.533333-0.948148 17.066667-2.844444 25.6-6.637037 18.014815-5.688889 36.02963-13.274074 53.096296-22.755555 6.637037-2.844444 11.377778-7.585185 17.066667-11.377778 3.792593-1.896296 5.688889-4.740741 9.481481-6.637037 11.377778-7.585185 20.859259-17.066667 30.340741-26.548148 1.896296-2.844444 5.688889-4.740741 8.533334-7.585186 3.792593-4.740741 8.533333-7.585185 11.377777-12.325925 1.896296-3.792593 5.688889-5.688889 7.585186-9.481482 10.42963-13.274074 18.962963-26.548148 26.548148-41.718518 4.740741-7.585185 8.533333-15.17037 11.377777-23.703704 4.740741-10.42963 8.533333-20.859259 11.377778-32.237037 5.688889-19.911111 9.481481-39.822222 11.377778-60.681482 1.896296-29.392593 0-59.733333-7.585185-89.125926-0.948148-9.481481-4.740741-18.014815-9.481482-25.6-10.42963-14.222222-30.340741-18.962963-45.511111-11.377777-15.17037 6.637037-23.703704 21.807407-22.755555 37.925926 0.948148 6.637037 2.844444 14.222222 4.74074 20.859259 0.948148 5.688889 2.844444 12.325926 2.844445 18.014815 2.844444 18.014815 2.844444 36.977778 0 55.94074-1.896296 12.325926-4.740741 23.703704-8.533333 36.02963l-5.688889 17.066667c-4.740741 9.481481-8.533333 18.962963-14.222223 28.444444-3.792593 5.688889-6.637037 11.377778-11.377777 17.066667-3.792593 3.792593-6.637037 8.533333-10.42963 13.274074-8.533333 9.481481-18.014815 18.014815-27.496296 26.548148-10.42963 8.533333-21.807407 16.118519-34.133334 22.755556-4.740741 2.844444-10.42963 4.740741-15.17037 6.637037-6.637037 3.792593-14.222222 4.740741-20.859259 8.533333l-22.755556 5.688889c-10.42963 1.896296-20.859259 1.896296-31.288889 2.844444-9.481481 0.948148-18.962963 0-28.444444-0.948148-7.585185-0.948148-16.118519 0-23.703704 2.844445-5.688889 1.896296-10.42963 4.740741-13.274074 9.481481-3.792593 1.896296-3.792593 6.637037-5.688889 10.42963-2.844444 3.792593-3.792593 8.533333-3.792592 14.222222 0 3.792593 0 8.533333 0.948148 12.325926 3.792593 15.17037 16.118519 25.6 31.288889 27.496296 4.740741 0.948148 9.481481 0 13.274074 0.948148z m0 0M721.540741 694.992593c9.481481 0.948148 19.911111 0 30.34074 0 4.740741 0 8.533333-0.948148 12.325926-1.896297 10.42963-1.896296 21.807407-4.740741 31.288889-8.533333 9.481481-4.740741 18.962963-9.481481 27.496297-16.118519 5.688889-2.844444 10.42963-7.585185 16.118518-11.377777 7.585185-8.533333 15.17037-17.066667 21.807408-26.548148 15.17037-21.807407 23.703704-48.355556 25.6-74.903704 0-9.481481 0-18.962963-0.948149-28.444445-0.948148-14.222222-5.688889-27.496296-14.222222-38.874074-7.585185-7.585185-18.962963-10.42963-29.392592-9.481481-8.533333 0.948148-17.066667 6.637037-21.807408 13.274074-5.688889 7.585185-7.585185 16.118519-6.637037 25.6 0.948148 5.688889 1.896296 11.377778 2.844445 16.118518 4.740741 31.288889-9.481481 62.577778-36.02963 79.644445-10.42963 6.637037-21.807407 10.42963-34.133333 12.325926h-24.651852c-8.533333 0-17.066667 2.844444-23.703704 9.481481-4.740741 4.740741-8.533333 11.377778-10.42963 18.014815-1.896296 8.533333 0 18.014815 4.740741 25.6 9.481481 9.481481 18.962963 15.17037 29.392593 16.118519z m0 0M402.014815 687.407407c23.703704 2.844444 48.355556-2.844444 68.266666-17.066666 14.222222-10.42963 23.703704-25.6 28.444445-42.666667 2.844444-11.377778 2.844444-22.755556 1.896296-34.133333-1.896296-12.325926-4.740741-23.703704-7.585185-36.02963-2.844444-8.533333-4.740741-17.066667-4.740741-26.548148 0-3.792593 2.844444-5.688889 6.637037-6.637037 6.637037 0 14.222222 1.896296 19.911111 5.688889 16.118519 7.585185 31.288889 15.17037 47.407408 21.807407 17.066667 7.585185 35.081481 13.274074 54.044444 18.014815 21.807407 5.688889 45.511111 7.585185 67.318519 5.688889 18.962963-1.896296 36.977778-10.42963 50.251852-24.651852 14.222222-16.118519 21.807407-36.977778 21.807407-58.785185 0.948148-22.755556-1.896296-45.511111-10.42963-66.37037-4.740741-8.533333-6.637037-18.014815-5.688888-27.496297 1.896296-6.637037 7.585185-10.42963 14.222222-11.377778 27.496296-3.792593 53.096296-15.17037 74.903703-30.34074 16.118519-12.325926 29.392593-28.444444 38.874075-46.45926 11.377778-24.651852 14.222222-52.148148 9.481481-78.696296-6.637037-35.081481-20.859259-68.266667-41.718518-96.711111-35.081481-47.407407-78.696296-86.281481-129.896297-114.725926-72.059259-41.718519-152.651852-68.266667-235.140741-79.644444-82.488889-12.325926-166.874074-6.637037-247.466666 15.17037-48.355556 14.222222-92.918519 36.977778-131.792593 69.214815C54.992593 54.044444 27.496296 92.918519 12.325926 137.481481-1.896296 185.837037-2.844444 236.088889 9.481481 284.444444c15.17037 57.837037 39.822222 111.881481 73.007408 161.185186 39.822222 58.785185 87.22963 110.933333 143.17037 155.496296 24.651852 19.911111 51.2 37.925926 79.644445 53.096296 28.444444 18.014815 62.577778 29.392593 96.711111 33.185185z m-13.274074-272.118518c-58.785185-2.844444-115.674074-17.066667-167.822222-42.666667-30.340741-14.222222-57.837037-34.133333-81.540741-56.888889-27.496296-25.6-45.511111-58.785185-53.096297-95.762963-6.637037-36.977778 1.896296-75.851852 22.755556-107.14074 25.6-35.081481 59.733333-63.525926 99.555556-80.592593 48.355556-21.807407 101.451852-33.185185 154.548148-35.081481 83.437037-3.792593 165.925926 16.118519 237.985185 57.837037 31.288889 18.014815 58.785185 42.666667 79.644444 71.111111s32.237037 62.577778 31.288889 97.659259c-0.948148 24.651852-8.533333 48.355556-20.859259 69.214815-13.274074 21.807407-31.288889 40.77037-52.148148 56.888889-36.977778 26.548148-79.644444 45.511111-125.155556 54.992592-40.77037 10.42963-83.437037 13.274074-125.155555 10.42963M374.518519 331.851852c46.459259 3.792593 91.97037-11.377778 127.051851-41.718519 16.118519-15.17037 28.444444-34.133333 35.081482-54.992592 9.481481-28.444444 8.533333-58.785185-1.896296-86.281482-16.118519-38.874074-45.511111-71.111111-84.385186-89.125926-47.407407-23.703704-102.4-26.548148-151.703703-7.585185-21.807407 8.533333-40.77037 21.807407-55.940741 38.874074-18.962963 20.859259-31.288889 48.355556-33.185185 76.8-1.896296 24.651852 3.792593 48.355556 15.17037 70.162963 19.911111 37.925926 54.044444 66.37037 93.866667 81.540741 18.014815 6.637037 36.977778 11.377778 55.940741 12.325926zM410.548148 226.607407c-9.481481-4.740741-14.222222-16.118519-9.481481-26.548148 4.740741-10.42963 15.17037-15.17037 25.6-11.377778 10.42963 3.792593 15.17037 15.17037 12.325926 25.6-4.740741 11.377778-17.066667 17.066667-28.444445 12.325926z m-90.074074-20.859259c-13.274074-1.896296-24.651852-7.585185-33.185185-17.066667-11.377778-11.377778-17.066667-28.444444-14.222222-44.562962 1.896296-11.377778 8.533333-21.807407 17.066666-29.392593 10.42963-8.533333 23.703704-11.377778 36.977778-10.42963 12.325926 1.896296 22.755556 6.637037 32.237037 15.170371 12.325926 11.377778 18.962963 28.444444 17.066667 45.511111-1.896296 11.377778-7.585185 22.755556-17.066667 30.340741-11.377778 8.533333-25.6 12.325926-38.874074 10.429629"  horiz-adv-x="1026" />

    
    <glyph glyph-name="ziyuan" unicode="&#58884;" d="M945.493333 695.751111h-82.109629v-549.925926a14.222222 14.222222 0 0 0-14.222223-14.222222H98.986667v-94.814815l161.754074-14.980741 541.013333 12.705186 99.555556 18.962963 44.183703 8.154074zM876.847407 679.822222a45.511111 45.511111 0 0 0 45.511112-45.511111v-509.345185a45.511111 45.511111 0 0 0-45.511112-45.511111H357.451852l-18.962963-18.962963-36.02963-32.995556-35.271111 34.133334-18.962963 18.962963H147.152593a45.511111 45.511111 0 0 0-45.511112 45.511111V634.500741a45.511111 45.511111 0 0 0 45.511112 45.511111h729.694814m0 68.266667H147.152593a113.777778 113.777778 0 0 1-113.777778-113.777778v-509.534815a113.777778 113.777778 0 0 1 113.777778-113.777778h73.007407l82.299259-77.748148 82.29926 77.748148h493.037037a113.777778 113.777778 0 0 1 113.777777 113.777778V634.500741a113.777778 113.777778 0 0 1-113.777777 113.777778zM729.125926 503.087407h-434.251852a34.133333 34.133333 0 1 1 0-68.266666h434.251852a34.133333 34.133333 0 1 1 0 68.266666zM543.099259 316.681481H294.874074a34.133333 34.133333 0 1 1 0-68.266666h248.225185a34.133333 34.133333 0 1 1 0 68.266666z"  horiz-adv-x="1024" />

    
    <glyph glyph-name="ziyuan1" unicode="&#58886;" d="M163.669333-84.992H102.4a89.770667 89.770667 0 0 0-89.6 89.6V456.021333A89.770667 89.770667 0 0 0 102.4 545.621333h61.269333a89.770667 89.770667 0 0 0 89.6-89.6v-451.413333a89.770667 89.770667 0 0 0-89.6-89.6zM102.4 469.333333a12.8 12.8 0 0 1-12.8-12.8v-451.925333A12.8 12.8 0 0 1 102.4-8.533333h61.269333a12.8 12.8 0 0 1 12.8 12.8V456.021333a12.8 12.8 0 0 1-12.8 13.312zM802.133333-87.04H387.925333a90.624 90.624 0 0 0-90.453333 90.453333V455.338667a90.624 90.624 0 0 0 90.453333 90.453333h66.901334a13.653333 13.653333 0 0 1 12.117333 7.338667l136.533333 260.778666a76.458667 76.458667 0 0 0 48.469334 38.741334 85.333333 85.333333 0 0 0 67.072-11.776 145.066667 145.066667 0 0 0 68.266666-159.573334c-4.266667-20.48-14.336-55.637333-26.965333-100.010666L750.933333 545.792h170.666667a90.453333 90.453333 0 0 0 87.381333-113.322667l-118.954666-452.096A90.453333 90.453333 0 0 0 802.133333-87.04zM387.925333 469.333333a13.653333 13.653333 0 0 1-13.653333-13.653333v-452.437333a13.653333 13.653333 0 0 1 13.653333-13.653334H802.133333a13.653333 13.653333 0 0 1 13.141334 10.069334L933.888 452.266667a13.653333 13.653333 0 0 1-12.288 17.066666H727.04a58.197333 58.197333 0 0 0-46.762667 23.210667 61.269333 61.269333 0 0 0-9.898666 53.418667l16.042666 56.661333c11.776 41.301333 21.845333 76.970667 25.770667 95.061333a68.266667 68.266667 0 0 1-34.133333 78.506667 12.288 12.288 0 0 1-6.826667 2.730667l-136.533333-260.949334A90.282667 90.282667 0 0 0 454.826667 469.333333z"  horiz-adv-x="1024" />

    
    <glyph glyph-name="ziyuan2" unicode="&#58887;" d="M310.423704 12.515556l106.382222 94.625185 10.24-79.265185-37.925926-32.047408-66.37037-10.619259-12.325926 27.306667zM590.506667 59.733333l130.465185 132.740741 7.016296-100.693333-87.608889-106.571852-49.872592 74.524444zM380.776296 170.856296l-22.186666-18.962963-0.948149-145.445926s-22.945185-51.38963-1.706666-41.908148 72.248889 99.176296 71.111111 102.968889-46.26963 103.348148-46.26963 103.348148zM917.997037 757.76L624.82963 469.902222l30.909629-380.397037 72.248889 75.851852V433.114074l109.037037 130.275556L936.580741 687.407407l-18.583704 70.352593zM357.072593-62.767407a67.887407 67.887407 0 0 0-56.888889 33.185185l-22.755556 36.408889-5.12 8.154074-48.924444 78.317037c-47.597037 29.013333-123.06963 75.851852-132.740741 84.195555A67.318519 67.318519 0 0 0 64.663704 232.296296a75.851852 75.851852 0 0 0 23.514074 51.768889l4.551111 5.12a113.777778 113.777778 0 0 0 72.059259 33.185185H270.032593l46.08 47.597037c-77.558519 28.823704-177.682963 66.37037-186.026667 69.594074A70.162963 70.162963 0 0 0 84.195556 497.777778a80.782222 80.782222 0 0 0 24.651851 64.663703c0.948148 0.948148 40.77037 37.925926 61.060741 55.182223a98.038519 98.038519 0 0 0 63.715556 23.893333h3.602963l163.081481-10.42963 164.977778-10.619259L720.592593 774.447407a181.285926 181.285926 0 0 0 128.379259 56.888889A117.76 117.76 0 0 0 930.702222 801.185185a113.777778 113.777778 0 0 0 28.823704-80.213333 181.096296 181.096296 0 0 0-56.888889-128.758519l-155.306667-155.496296c2.465185-42.287407 6.068148-103.158519 9.481482-160.616296l4.740741-80.213334c4.361481-73.576296 4.93037-81.351111 4.93037-84.195555A96.142222 96.142222 0 0 0 742.58963 42.666667c-13.653333-16.877037-41.908148-47.217778-53.475556-59.543704a82.488889 82.488889 0 0 0-65.422222-26.168889 69.973333 69.973333 0 0 0-58.785185 45.700741c-3.223704 8.533333-39.632593 106.761481-68.077037 184.13037l-48.165926-45.511111V39.632593c0-16.687407-2.465185-39.253333-32.805926-74.524445l-2.085926-2.275555a80.402963 80.402963 0 0 0-56.699259-25.6zM137.291852 237.226667l-1.706667-1.517037a9.291852 9.291852 0 0 1-2.844444-5.30963c7.205926-5.12 74.524444-48.165926 132.74074-82.868148l3.602963-2.085926 7.964445-9.291852c8.722963-14.411852 33.185185-53.285926 52.906667-84.954074l5.12-7.964444 23.324444-37.925926a20.66963 20.66963 0 0 1 7.395556 4.93037c6.257778 7.585185 15.54963 18.962963 15.36 26.737778v3.034074V105.244444v65.611852l144.118518 138.808889 18.014815-49.303704c27.496296-75.851852 81.73037-221.866667 85.712592-232.106666a7.205926 7.205926 0 0 1 1.517038-2.465185 13.084444 13.084444 0 0 1 9.671111 5.12c8.343704 8.912593 37.925926 40.011852 50.251851 56.888889a30.151111 30.151111 0 0 1 8.343704 23.514074c0 4.93037-1.896296 32.995556-4.740741 81.73037l-4.74074 80.213333c-3.982222 64.853333-8.154074 134.068148-10.42963 175.976297v15.17037l176.924445 177.114074A113.777778 113.777778 0 0 1 891.259259 720.971852a51.2 51.2 0 0 1-8.722963 32.616296A54.234074 54.234074 0 0 1 848.782222 763.259259a113.777778 113.777778 0 0 1-80.023703-37.925926l-176.924445-176.924444-15.36 0.948148-180.337778 11.757037-159.288889 10.24h-1.706666a28.444444 28.444444 0 0 1-21.428148-8.154074c-16.877037-14.032593-52.717037-47.407407-56.888889-51.38963a13.463704 13.463704 0 0 1-5.12-8.343703 6.637037 6.637037 0 0 1 2.844444-1.517037c8.912593-3.413333 154.737778-58.026667 233.813333-87.22963l49.114075-18.962963-139.188149-143.54963H164.788148a65.991111 65.991111 0 0 1-27.496296-14.98074z"  horiz-adv-x="1024" />

    


  </font>
</defs>
</svg>
